<svg width="100" height="100" viewBox="0 0 100 100" fill="none" xmlns="http://www.w3.org/2000/svg">
<path d="M39.875 71.043C37.1136 71.043 34.875 68.8088 34.875 66.0527C34.875 63.2967 37.1136 61.0625 39.875 61.0625C42.6364 61.0625 44.875 63.2967 44.875 66.0527C44.875 68.8088 42.6364 71.043 39.875 71.043Z" fill="black"/>
<path d="M69.875 71.043C67.1136 71.043 64.875 68.8088 64.875 66.0527C64.875 63.2967 67.1136 61.0625 69.875 61.0625C72.6364 61.0625 74.875 63.2967 74.875 66.0527C74.875 68.8088 72.6364 71.043 69.875 71.043Z" fill="black"/>
<path d="M49.875 71.043C47.1136 71.043 44.875 68.8088 44.875 66.0527C44.875 63.2967 47.1136 61.0625 49.875 61.0625C52.6364 61.0625 54.875 63.2967 54.875 66.0527C54.875 68.8088 52.6364 71.043 49.875 71.043Z" fill="black"/>
<path d="M59.875 71.043C57.1136 71.043 54.875 68.8088 54.875 66.0527C54.875 63.2967 57.1136 61.0625 59.875 61.0625C62.6364 61.0625 64.875 63.2967 64.875 66.0527C64.875 68.8088 62.6364 71.043 59.875 71.043Z" fill="black"/>
<path d="M76.5821 65.1659C75.822 62.0728 73.0328 59.7818 69.7034 59.7818H39.7867C36.5013 59.7818 33.7419 62.0127 32.9393 65.0439C32.6616 66.0924 31.7194 66.8272 30.6386 66.7347C24.1861 66.1826 4.82843 63.3686 4.82843 49.479C4.82843 32.8115 51.9951 25.979 71.3284 25.979C90.6617 25.979 94.4951 25.979 94.4951 25.979V66.8651H78.703C77.6849 66.8651 76.825 66.1545 76.5821 65.1659ZM37.2034 37.979C37.2034 36.2991 36.8416 34.9374 35.1617 34.9374H34.5798C34.0489 34.9374 33.5285 35.0856 33.0773 35.3655L15.8624 43.8019C14.6617 44.5624 14.2451 46.8124 16.9639 46.8124H34.2659C35.8882 46.8124 37.2034 45.4972 37.2034 43.8749V37.979ZM57.0784 37.9374C57.0784 36.2805 55.7353 34.9374 54.0784 34.9374H45.2034C43.5466 34.9374 42.2034 36.2805 42.2034 37.9374V43.8124C42.2034 45.4692 43.5466 46.8124 45.2034 46.8124H54.0784C55.7353 46.8124 57.0784 45.4692 57.0784 43.8124V37.9374ZM90.8284 43.8124V37.9374C90.8284 36.2805 89.4853 34.9374 87.8284 34.9374H65.2034C63.5466 34.9374 62.2034 36.2805 62.2034 37.9374V43.8124C62.2034 45.4692 63.5466 46.8124 65.2034 46.8124H87.8284C89.4853 46.8124 90.8284 45.4692 90.8284 43.8124Z" fill="black"/>
<path d="M5.82812 73.0664H94C94.5522 73.0664 95 73.5142 95 74.0664C95 74.6187 94.5522 75.0664 94 75.0664H5.82812C5.27588 75.0664 4.82812 74.6187 4.82812 74.0664C4.82812 73.5142 5.27588 73.0664 5.82812 73.0664Z" fill="black"/>
</svg>
