<svg width="108" height="43" viewBox="0 0 108 43" fill="#969696" xmlns="http://www.w3.org/2000/svg">
<path d="M14.09 34.4697H32.6565V31.993H37.1152V34.4697H94.0211V31.7055H14.09V34.4697ZM95.3134 32.2377V22.1755C95.3134 22.1037 95.2869 21.4832 94.6244 21.4832H93.734C93.6622 21.4832 93.0412 21.5097 93.0412 22.1743V30.4974H94.6244C94.7843 30.4977 94.9376 30.5614 95.0507 30.6747C95.1637 30.7879 95.2274 30.9413 95.2277 31.1014V32.2389L95.3134 32.2377ZM52.4296 11.7477H60.0899L59.406 3.87103H58.513V2.53177H55.8391V3.0198C55.9355 3.12601 55.9911 3.26306 55.9959 3.40651C56.0008 3.54995 55.9545 3.69045 55.8655 3.80293L55.8391 3.83572V3.87229H55.8101L52.4308 8.10194L52.4296 11.7477ZM28.3641 7.35538C28.4505 7.31006 28.5462 7.28546 28.6437 7.2835H51.5353L54.5292 3.53684C54.4159 3.40281 54.2749 3.29504 54.1159 3.221C53.957 3.14697 53.7838 3.10843 53.6085 3.10808H49.9798L49.5969 1.52165C49.5969 0.628807 48.7052 0.752391 48.7052 0.752391C48.7052 0.752391 48.7052 0.74735 47.8134 0.74735C46.9217 0.74735 46.9217 1.64019 46.9217 1.64019L46.5539 3.10934H45.2088C44.8662 2.85208 44.3347 2.53303 43.8006 2.53303C43.2679 2.53303 42.7351 2.85208 42.3925 3.10934H34.9551C34.6125 2.85208 34.081 2.53303 33.547 2.53303C33.0142 2.53303 32.4814 2.85208 32.1388 3.10934H28.1978C27.9917 3.10879 27.7889 3.16116 27.6088 3.26144C27.4287 3.36173 27.2773 3.50658 27.169 3.68215C27.0607 3.85773 26.9992 4.05817 26.9904 4.26433C26.9815 4.47049 27.0256 4.67548 27.1184 4.85971L28.3641 7.35538ZM107.107 42.5053H77.4598C78.3198 41.8622 79.0014 41.0096 79.4398 40.0286H81.251V39.1357H83.9249V40.0286C83.9249 40.0286 83.9249 40.9214 85.7084 40.9214C87.4918 40.9214 87.4918 40.0286 87.4918 40.0286V38.2429H92.5248C92.5248 38.91 93.0664 39.4523 93.7327 39.4523H100.229V40.0286C100.229 40.1888 100.293 40.3424 100.406 40.4557C100.519 40.569 100.673 40.6326 100.833 40.6326C100.993 40.6326 101.146 40.569 101.259 40.4557C101.372 40.3424 101.436 40.1888 101.436 40.0286V39.3098C101.629 39.2064 101.79 39.0526 101.902 38.8647C102.015 38.6768 102.074 38.4619 102.074 38.2429V37.6666H102.333V38.2429C102.333 38.91 102.874 39.4523 103.541 39.4523H106.216C106.527 39.438 106.82 39.3044 107.035 39.0792C107.25 38.8539 107.37 38.5544 107.37 38.2429C107.37 37.9314 107.25 37.6318 107.035 37.4066C106.82 37.1814 106.527 37.0477 106.216 37.0335H104.748V36.4572C104.748 36.1366 104.621 35.8292 104.394 35.6024C104.168 35.3757 103.861 35.2482 103.541 35.2478H102.074V33.4912H103.541C103.701 33.4912 103.855 33.4274 103.968 33.3139C104.081 33.2003 104.145 33.0464 104.145 32.8858V32.5971H105.611V32.8858C105.606 32.9685 105.617 33.0513 105.645 33.1292C105.673 33.2071 105.717 33.2785 105.773 33.3389C105.83 33.3993 105.898 33.4474 105.974 33.4803C106.05 33.5132 106.132 33.5302 106.214 33.5302C106.297 33.5302 106.379 33.5132 106.455 33.4803C106.531 33.4474 106.599 33.3993 106.656 33.3389C106.712 33.2785 106.756 33.2071 106.784 33.1292C106.811 33.0513 106.823 32.9685 106.818 32.8858V31.1002C106.808 30.9467 106.74 30.8028 106.628 30.6976C106.516 30.5924 106.368 30.5339 106.214 30.5339C106.061 30.5339 105.913 30.5924 105.801 30.6976C105.689 30.8028 105.621 30.9467 105.611 31.1002V31.3889H104.145V31.1002C104.145 30.9398 104.081 30.7862 103.968 30.6729C103.854 30.5597 103.701 30.4961 103.541 30.4961H101.959V28.4216C101.959 26.8466 103.41 22.3281 103.685 21.4819H104.432C104.486 21.4819 104.537 21.4607 104.575 21.4228C104.613 21.385 104.634 21.3337 104.634 21.2802C104.634 21.2267 104.613 21.1753 104.575 21.1375C104.537 21.0997 104.486 21.0784 104.432 21.0784H102.65C100.686 21.0784 100.665 23.0457 100.665 23.0659V29.8895H98.5075V27.4418C98.8438 27.2501 99.0831 26.7621 99.0831 26.1908C99.0831 25.6183 98.8438 25.1315 98.5075 24.9398V17.6218C98.8438 17.4301 99.0831 16.9433 99.0831 16.3708C99.0831 15.7983 98.8438 15.3115 98.5075 15.1198V14.1387C98.5072 13.8181 98.3798 13.5106 98.1534 13.2839C97.9269 13.0572 97.6199 12.9297 97.2996 12.9293H86.153V12.353H78.1286V12.9293H64.4831C64.4263 12.9468 64.3674 12.9561 64.308 12.9571H52.4296V15.594C52.7696 15.7163 53.1198 16.0089 53.1198 16.6155V19.294C53.1198 19.6055 52.9648 20.1439 52.4296 20.3255V30.4974H92.6395V22.1743C92.6395 21.3079 93.3536 21.0797 93.7327 21.0797H94.6244C95.4885 21.0797 95.7164 21.7959 95.7164 22.1743V32.4407C95.7164 32.4942 95.6952 32.5455 95.6574 32.5834C95.6196 32.6212 95.5684 32.6425 95.5149 32.6425H95.2265V33.1746H99.0818C99.2373 33.1817 99.3839 33.2486 99.4914 33.3612C99.5989 33.4738 99.6588 33.6236 99.6588 33.7793C99.6588 33.9351 99.5989 34.0848 99.4914 34.1975C99.3839 34.3101 99.2373 34.3769 99.0818 34.384H95.2265V34.9603H99.0818C99.2351 34.9702 99.3789 35.0382 99.4839 35.1504C99.589 35.2626 99.6474 35.4106 99.6474 35.5644C99.6474 35.7181 99.589 35.8662 99.4839 35.9784C99.3789 36.0905 99.2351 36.1585 99.0818 36.1684H95.2265V36.4572C95.2265 36.6176 95.1629 36.7714 95.0496 36.8848C94.9363 36.9982 94.7827 37.0619 94.6226 37.0619C94.4624 37.0619 94.3088 36.9982 94.1955 36.8848C94.0822 36.7714 94.0186 36.6176 94.0186 36.4572V34.8733H14.09V37.3513C14.0801 37.5048 14.0123 37.6487 13.9002 37.7539C13.7881 37.859 13.6403 37.9176 13.4867 37.9176C13.3331 37.9176 13.1853 37.859 13.0733 37.7539C12.9612 37.6487 12.8933 37.5048 12.8834 37.3513V36.1684H9.02932C8.87605 36.1585 8.7323 36.0905 8.62726 35.9784C8.52222 35.8662 8.46376 35.7181 8.46376 35.5644C8.46376 35.4106 8.52222 35.2626 8.62726 35.1504C8.7323 35.0382 8.87605 34.9702 9.02932 34.9603H12.8834V34.3827H9.02932C8.86915 34.3827 8.71553 34.319 8.60227 34.2056C8.48901 34.0922 8.42539 33.9384 8.42539 33.778C8.42539 33.6177 8.48901 33.4639 8.60227 33.3505C8.71553 33.2371 8.86915 33.1734 9.02932 33.1734H12.8834V32.6412H12.595C12.5415 32.6412 12.4903 32.6199 12.4525 32.5821C12.4147 32.5443 12.3935 32.4929 12.3935 32.4394V22.173C12.3935 21.7947 12.6227 21.0784 13.4867 21.0784H14.3785C14.7563 21.0784 15.4705 21.3079 15.4705 22.173V30.4961H51.2217V8.49413H28.7734V12.9293H26.4144V12.353H22.8474V12.9293H17.0511V12.353H13.4842V12.9293H10.809C10.6503 12.929 10.4931 12.9601 10.3464 13.0207C10.1997 13.0814 10.0664 13.1704 9.95418 13.2828C9.84195 13.3952 9.75299 13.5286 9.69241 13.6755C9.63182 13.8224 9.60081 13.9798 9.60114 14.1387V15.1198C9.26485 15.3115 9.02554 15.7995 9.02554 16.3708C9.02554 16.9421 9.26485 17.4289 9.60114 17.6218V24.9398C9.26485 25.1315 9.02554 25.6183 9.02554 26.1908C9.02554 26.7633 9.26485 27.2501 9.60114 27.4418V29.8895H7.44612V23.0659C7.44612 23.0305 7.43982 22.1818 6.85918 21.6005C6.51408 21.2549 6.04302 21.0784 5.46238 21.0784H3.67766C3.62421 21.0784 3.57295 21.0997 3.53516 21.1375C3.49737 21.1753 3.47614 21.2267 3.47614 21.2802C3.47614 21.3911 3.56682 21.4819 3.67766 21.4819H4.42455C4.70038 22.3281 6.1526 26.8466 6.1526 28.4216V30.4961H4.57065C4.41075 30.4964 4.25749 30.5602 4.14442 30.6734C4.03135 30.7866 3.96768 30.9401 3.96735 31.1002V31.3889H2.49876V31.1002C2.48885 30.9467 2.42097 30.8028 2.30892 30.6976C2.19687 30.5924 2.04904 30.5339 1.89545 30.5339C1.74186 30.5339 1.59403 30.5924 1.48198 30.6976C1.36993 30.8028 1.30205 30.9467 1.29214 31.1002V32.8858C1.28681 32.9685 1.29846 33.0513 1.32636 33.1292C1.35427 33.2071 1.39784 33.2785 1.45438 33.3389C1.51093 33.3993 1.57924 33.4474 1.65511 33.4803C1.73097 33.5132 1.81277 33.5302 1.89545 33.5302C1.97813 33.5302 2.05993 33.5132 2.13579 33.4803C2.21166 33.4474 2.27997 33.3993 2.33652 33.3389C2.39306 33.2785 2.43663 33.2071 2.46454 33.1292C2.49244 33.0513 2.50409 32.9685 2.49876 32.8858V32.5971H3.96609V32.8858C3.96609 33.2213 4.23688 33.4912 4.56939 33.4912H6.03672V35.2478H4.56939C4.24915 35.2482 3.94211 35.3757 3.71567 35.6024C3.48922 35.8292 3.36185 36.1366 3.36152 36.4572V37.0335H1.89419C1.58339 37.0477 1.29001 37.1814 1.07509 37.4066C0.860168 37.6318 0.740234 37.9314 0.740234 38.2429C0.740234 38.5544 0.860168 38.8539 1.07509 39.0792C1.29001 39.3044 1.58339 39.438 1.89419 39.4523H4.56939C4.88964 39.4519 5.19667 39.3244 5.42312 39.0977C5.64957 38.8709 5.77693 38.5635 5.77726 38.2429V37.6666H6.03672V38.2429C6.03672 38.6906 6.27981 39.0802 6.64003 39.2896V40.0286C6.64003 40.1888 6.70359 40.3424 6.81673 40.4557C6.92987 40.569 7.08333 40.6326 7.24333 40.6326C7.40334 40.6326 7.55679 40.569 7.66994 40.4557C7.78308 40.3424 7.84664 40.1888 7.84664 40.0286V39.4523H14.3759C14.6766 39.4516 14.9663 39.3387 15.1883 39.1357H17.497V40.9214H19.2805V40.0286L19.7263 39.5822H20.6181V38.2429H28.1966V40.0286H29.98V40.9214H31.0153C31.4171 41.5305 31.9209 42.0677 32.5053 42.5053H1.00246C0.974738 42.5031 0.946864 42.5067 0.92059 42.5158C0.894315 42.5249 0.870208 42.5394 0.849784 42.5583C0.829361 42.5772 0.813063 42.6001 0.801917 42.6256C0.79077 42.6511 0.785016 42.6786 0.785016 42.7065C0.785016 42.7343 0.79077 42.7618 0.801917 42.7873C0.813063 42.8129 0.829361 42.8358 0.849784 42.8547C0.870208 42.8736 0.894315 42.888 0.92059 42.8971C0.946864 42.9062 0.974738 42.9098 1.00246 42.9076H107.106C107.157 42.9038 107.204 42.881 107.239 42.8438C107.273 42.8066 107.292 42.7578 107.292 42.707C107.293 42.6563 107.274 42.6073 107.239 42.57C107.205 42.5326 107.158 42.5095 107.107 42.5053ZM102.65 21.4819H103.262C102.901 22.5942 101.556 26.8339 101.556 28.4216V30.109C101.411 30.0052 101.244 29.9369 101.068 29.9097V23.0659C101.068 23.0015 101.092 21.4819 102.65 21.4819ZM94.6244 16.1262H85.9086V29.3157C85.9086 29.3693 85.8874 29.4206 85.8496 29.4584C85.8118 29.4963 85.7605 29.5175 85.7071 29.5175C85.6537 29.5175 85.6024 29.4963 85.5646 29.4584C85.5268 29.4206 85.5056 29.3693 85.5056 29.3157V16.1262H74.2745V29.3157C74.2767 29.3435 74.2732 29.3714 74.2641 29.3977C74.255 29.424 74.2405 29.4482 74.2216 29.4686C74.2028 29.489 74.1799 29.5054 74.1544 29.5165C74.1289 29.5277 74.1014 29.5334 74.0736 29.5334C74.0458 29.5334 74.0183 29.5277 73.9928 29.5165C73.9674 29.5054 73.9445 29.489 73.9256 29.4686C73.9067 29.4482 73.8923 29.424 73.8832 29.3977C73.8741 29.3714 73.8705 29.3435 73.8727 29.3157V16.1262H62.6404V29.3157C62.6404 29.3693 62.6192 29.4206 62.5814 29.4584C62.5436 29.4963 62.4923 29.5175 62.4389 29.5175C62.3854 29.5175 62.3342 29.4963 62.2964 29.4584C62.2586 29.4206 62.2374 29.3693 62.2374 29.3157V16.1262H53.1638C53.1104 16.1262 53.0591 16.1049 53.0214 16.0671C52.9836 16.0292 52.9623 15.9779 52.9623 15.9244C52.9623 15.8709 52.9836 15.8196 53.0214 15.7817C53.0591 15.7439 53.1104 15.7226 53.1638 15.7226H94.6257C94.7365 15.7226 94.826 15.8122 94.826 15.9244C94.826 15.9779 94.8047 16.0292 94.7669 16.0671C94.7291 16.1049 94.6779 16.1262 94.6244 16.1262ZM49.1511 29.9639H39.7891C39.7357 29.9639 39.6844 29.9427 39.6466 29.9048C39.6088 29.867 39.5876 29.8157 39.5876 29.7622C39.5876 29.7086 39.6088 29.6573 39.6466 29.6195C39.6844 29.5816 39.7357 29.5604 39.7891 29.5604H49.1511C49.2045 29.5604 49.2558 29.5816 49.2935 29.6195C49.3313 29.6573 49.3526 29.7086 49.3526 29.7622C49.3526 29.8157 49.3313 29.867 49.2935 29.9048C49.2558 29.9427 49.2045 29.9639 49.1511 29.9639ZM49.1511 28.1782H39.7891C39.7357 28.1782 39.6844 28.157 39.6466 28.1192C39.6088 28.0813 39.5876 28.03 39.5876 27.9765C39.5876 27.923 39.6088 27.8716 39.6466 27.8338C39.6844 27.796 39.7357 27.7747 39.7891 27.7747H49.1511C49.2045 27.7747 49.2558 27.796 49.2935 27.8338C49.3313 27.8716 49.3526 27.923 49.3526 27.9765C49.3526 28.03 49.3313 28.0813 49.2935 28.1192C49.2558 28.157 49.2045 28.1782 49.1511 28.1782ZM49.1511 18.8047H39.7891C39.7626 18.8047 39.7364 18.7995 39.712 18.7893C39.6875 18.7792 39.6653 18.7643 39.6466 18.7456C39.6279 18.7268 39.613 18.7046 39.6029 18.6801C39.5928 18.6556 39.5876 18.6294 39.5876 18.6029C39.5876 18.5764 39.5928 18.5502 39.6029 18.5257C39.613 18.5012 39.6279 18.479 39.6466 18.4602C39.6653 18.4415 39.6875 18.4266 39.712 18.4165C39.7364 18.4064 39.7626 18.4011 39.7891 18.4011H49.1511C49.2045 18.4011 49.2558 18.4224 49.2935 18.4602C49.3313 18.4981 49.3526 18.5494 49.3526 18.6029C49.3526 18.6564 49.3313 18.7077 49.2935 18.7456C49.2558 18.7834 49.2045 18.8047 49.1511 18.8047ZM44.448 9.22808H48.2593C48.2593 9.22808 50.0428 9.22808 50.0428 11.0138V14.5851C50.0428 14.6192 50.0252 16.3708 48.2593 16.3708H44.448V9.22808ZM38.4515 11.0138C38.4515 10.986 38.4654 9.22808 40.235 9.22808H44.0462V16.3708H40.235C40.235 16.3708 38.4515 16.3708 38.4515 14.5851V11.0138ZM38.25 18.6017C38.25 18.5481 38.2712 18.4968 38.309 18.459C38.3468 18.4211 38.3981 18.3999 38.4515 18.3999C38.5049 18.3999 38.5562 18.4211 38.594 18.459C38.6318 18.4968 38.653 18.5481 38.653 18.6017V30.2073C38.653 30.3183 38.5623 30.4091 38.4515 30.4091C38.3407 30.4091 38.25 30.3183 38.25 30.2073V18.6017ZM32.0091 8.78166C32.0091 8.72814 32.0303 8.67682 32.0681 8.63898C32.1059 8.60114 32.1572 8.57988 32.2106 8.57988H37.5598C37.6132 8.57988 37.6645 8.60114 37.7023 8.63898C37.7401 8.67682 37.7613 8.72814 37.7613 8.78166V29.7622C37.761 29.8155 37.7396 29.8665 37.7018 29.904C37.6641 29.9416 37.613 29.9627 37.5598 29.9627H32.2106C32.1574 29.9627 32.1063 29.9416 32.0686 29.904C32.0308 29.8665 32.0094 29.8155 32.0091 29.7622V8.78166ZM31.1174 18.6017C31.1174 18.5481 31.1386 18.4968 31.1764 18.459C31.2142 18.4211 31.2654 18.3999 31.3189 18.3999C31.3723 18.3999 31.4236 18.4211 31.4614 18.459C31.4992 18.4968 31.5204 18.5481 31.5204 18.6017V30.2073C31.5204 30.2608 31.4992 30.3122 31.4614 30.35C31.4236 30.3878 31.3723 30.4091 31.3189 30.4091C31.2654 30.4091 31.2142 30.3878 31.1764 30.35C31.1386 30.3122 31.1174 30.2608 31.1174 30.2073V18.6017ZM13.4855 15.7226H29.0896C29.143 15.7226 29.1943 15.7439 29.2321 15.7817C29.2698 15.8196 29.2911 15.8709 29.2911 15.9244C29.2911 15.9779 29.2698 16.0292 29.2321 16.0671C29.1943 16.1049 29.143 16.1262 29.0896 16.1262H24.8324V29.3157C24.8324 29.428 24.743 29.5175 24.6309 29.5175C24.5188 29.5175 24.4294 29.428 24.4294 29.3157V16.1262H13.4855C13.432 16.1262 13.3808 16.1049 13.343 16.0671C13.3052 16.0292 13.2839 15.9779 13.2839 15.9244C13.2839 15.8709 13.3052 15.8196 13.343 15.7817C13.3808 15.7439 13.432 15.7226 13.4855 15.7226ZM7.04307 29.9097C6.86719 29.9396 6.70022 30.0086 6.55438 30.1115V28.4216C6.55438 26.8327 5.21048 22.5942 4.849 21.4819H5.46238C7.01914 21.4819 7.04433 23.0015 7.04433 23.0659L7.04307 29.9097ZM40.0133 42.5053C40.7387 41.9631 41.3389 41.2705 41.7728 40.475H52.1436C52.5779 41.2707 53.1785 41.9632 53.9044 42.5053H40.0133ZM61.4099 42.5053C62.2699 41.8622 62.9514 41.0096 63.3898 40.0286H65.6456V38.2429L66.2212 37.6666H66.5373V39.1357C66.5373 39.1357 66.5361 40.0286 67.4291 40.0286H67.9757C68.4144 41.0098 69.0964 41.8623 69.9569 42.5053H61.4099ZM52.718 19.2927V16.6142C52.718 16.3027 52.582 16.1337 52.4296 16.0391V19.8753C52.7016 19.695 52.7167 19.3444 52.718 19.2927ZM15.0674 22.173C15.0674 21.5084 14.4465 21.4819 14.3772 21.4819H13.4855C12.8217 21.4819 12.7965 22.1037 12.7953 22.173V32.2364H12.8809V31.0989C12.8812 30.9388 12.9449 30.7853 13.058 30.6721C13.171 30.5589 13.3243 30.4952 13.4842 30.4948H15.0662L15.0674 22.173ZM37.3582 28.1782H32.4109V29.5604H37.3582V28.1782ZM37.3582 18.8047H36.668C36.6416 18.8047 36.6154 18.7995 36.5909 18.7893C36.5665 18.7792 36.5443 18.7643 36.5255 18.7456C36.5068 18.7268 36.492 18.7046 36.4819 18.6801C36.4717 18.6556 36.4665 18.6294 36.4665 18.6029C36.4665 18.5764 36.4717 18.5502 36.4819 18.5257C36.492 18.5012 36.5068 18.479 36.5255 18.4602C36.5443 18.4415 36.5665 18.4266 36.5909 18.4165C36.6154 18.4064 36.6416 18.4011 36.668 18.4011H37.3582V8.98343H32.4109V27.7747H37.3582V18.8047ZM35.3304 16.3708H34.4387C34.4387 16.3708 33.654 16.3708 33.1263 15.8487C32.858 15.5852 32.6565 15.1854 32.6565 14.5851V11.0138C32.6565 10.9873 32.6703 9.22808 34.44 9.22808H35.3317C35.3317 9.22808 37.1152 9.22808 37.1152 11.0138V14.5851C37.1152 14.6167 37.0988 16.164 35.634 16.3519C35.5383 16.3645 35.4375 16.3708 35.3304 16.3708Z" fill="#D3D3D3"/>
</svg>
