<svg width="100" height="100" viewBox="0 0 100 100" fill="none" xmlns="http://www.w3.org/2000/svg">
<path d="M85 31V29.125C85 26.9158 83.2092 25.125 81 25.125H19C16.7908 25.125 15 26.9158 15 29.125V31H85Z" fill="black"/>
<path d="M94.1719 73.9175H6C5.44775 73.9175 5 74.1973 5 74.5425C5 74.8876 5.44775 75.1675 6 75.1675H94.1719C94.7241 75.1675 95.1719 74.8876 95.1719 74.5425C95.1719 74.1973 94.7241 73.9175 94.1719 73.9175Z" fill="black"/>
<path d="M25.6355 72.8104C27.8833 72.8104 29.7056 70.9917 29.7056 68.7482C29.7056 66.5047 27.8833 64.686 25.6355 64.686C23.3877 64.686 21.5654 66.5047 21.5654 68.7482C21.5654 70.9917 23.3877 72.8104 25.6355 72.8104Z" fill="black"/>
<path d="M17.4949 72.8104C19.7427 72.8104 21.5649 70.9917 21.5649 68.7482C21.5649 66.5047 19.7427 64.686 17.4949 64.686C15.247 64.686 13.4248 66.5047 13.4248 68.7482C13.4248 70.9917 15.247 72.8104 17.4949 72.8104Z" fill="black"/>
<path d="M85.6355 72.8104C87.8833 72.8104 89.7056 70.9917 89.7056 68.7482C89.7056 66.5047 87.8833 64.686 85.6355 64.686C83.3877 64.686 81.5654 66.5047 81.5654 68.7482C81.5654 70.9917 83.3877 72.8104 85.6355 72.8104Z" fill="black"/>
<path d="M77.4949 72.8104C79.7427 72.8104 81.5649 70.9917 81.5649 68.7482C81.5649 66.5047 79.7427 64.686 77.4949 64.686C75.247 64.686 73.4248 66.5047 73.4248 68.7482C73.4248 70.9917 75.247 72.8104 77.4949 72.8104Z" fill="black"/>
<path d="M5.125 63.9761H9.10724V62.9822H15.0446C12.8041 63.938 11.2295 66.1622 11.2295 68.748H12.2295C12.2295 65.8447 14.5918 63.4824 17.4951 63.4824H25.5674C28.4707 63.4824 30.833 65.8447 30.833 68.748H31.833C31.833 66.1622 30.2584 63.938 28.0179 62.9822H75.0446C72.8041 63.938 71.2295 66.1622 71.2295 68.748H72.2295C72.2295 65.8447 74.5918 63.4824 77.4951 63.4824H85.5674C88.4707 63.4824 90.833 65.8447 90.833 68.748H91.833C91.833 66.1622 90.2584 63.938 88.0179 62.9822H91.0178V63.8094H95V62.9822V60.4761V59H91.0178V60.4761H90V58.375H85V34.375H15V58.375H10V60.4761H9.10724V59H5.125V60.4761H5V62.9822H5.125V63.9761ZM72.9091 42.709C72.9091 42.1568 73.3568 41.709 73.9091 41.709H77C77.5523 41.709 78 42.1568 78 42.709V53.5C78 54.0522 77.5523 54.5 77 54.5H73.9091C73.3568 54.5 72.9091 54.0522 72.9091 53.5V42.709ZM62.7273 42.709C62.7273 42.1568 63.175 41.709 63.7273 41.709H66.8182C67.3705 41.709 67.8182 42.1568 67.8182 42.709V47.5C67.8182 48.0522 67.3705 48.5 66.8182 48.5H63.7273C63.175 48.5 62.7273 48.0522 62.7273 47.5V42.709ZM52.5455 42.709C52.5455 42.1568 52.9932 41.709 53.5455 41.709H56.6364C57.1887 41.709 57.6364 42.1568 57.6364 42.709V47.5C57.6364 48.0522 57.1887 48.5 56.6364 48.5H53.5455C52.9932 48.5 52.5455 48.0522 52.5455 47.5V42.709ZM42.3636 42.709C42.3636 42.1568 42.8113 41.709 43.3636 41.709H46.4545C47.0068 41.709 47.4545 42.1568 47.4545 42.709V47.5C47.4545 48.0522 47.0068 48.5 46.4545 48.5H43.3636C42.8113 48.5 42.3636 48.0522 42.3636 47.5V42.709ZM32.1818 42.709C32.1818 42.1568 32.6295 41.709 33.1818 41.709H36.2727C36.825 41.709 37.2727 42.1568 37.2727 42.709V47.5C37.2727 48.0522 36.825 48.5 36.2727 48.5H33.1818C32.6295 48.5 32.1818 48.0522 32.1818 47.5V42.709ZM22 42.709C22 42.1568 22.4477 41.709 23 41.709H26.0909C26.6432 41.709 27.0909 42.1568 27.0909 42.709V53.5C27.0909 54.0522 26.6432 54.5 26.0909 54.5H23C22.4477 54.5 22 54.0522 22 53.5V42.709Z" fill="black"/>
</svg>
