	<svg width="25px" height="25px" viewBox="0 0 43 43" fill="#969696" xmlns="http://www.w3.org/2000/svg">
	<g clip-path="url(#clip0_17_284)">
	<path d="M42.6641 10.7501C42.4625 10.6157 42.1937 10.5485 41.9922 10.6829L28.2859 15.5876L18.6781 12.0938C19.2156 10.7501 19.4844 9.54072 19.4844 8.53291C19.4844 6.71885 18.8125 5.10635 17.5359 3.82979C16.2594 2.55322 14.5797 1.88135 12.8328 1.88135C9.1375 1.88135 6.18125 4.8376 6.18125 8.53291C6.18125 9.80947 6.65156 11.3548 7.45781 13.236L0.470313 15.5876C0.201562 15.722 0 15.9907 0 16.2595V40.447C0 40.7157 0.134375 40.9173 0.335938 41.0517C0.470313 41.1188 0.604687 41.186 0.739062 41.186C0.80625 41.186 0.940625 41.186 1.00781 41.1188L14.7141 36.2813L28.0172 41.186C28.1516 41.2532 28.3531 41.2532 28.4875 41.186L42.4625 36.2142C42.7313 36.0798 42.9328 35.811 42.9328 35.5423V11.3548C43 11.086 42.8656 10.8845 42.6641 10.7501ZM12.8328 3.2251C14.2437 3.2251 15.5203 3.7626 16.4609 4.77041C17.4688 5.71104 18.0063 7.05479 18.0063 8.39854C18.0063 9.33916 17.6703 10.6157 16.9984 12.0938C15.7891 14.7813 13.7734 17.6032 12.8328 18.8798C12.6984 18.7454 12.6312 18.611 12.4969 18.4095C11.6234 17.2001 10.2125 15.1845 9.20469 13.1017C8.19687 11.1532 7.72656 9.54072 7.72656 8.33135C7.65938 5.57666 10.0109 3.2251 12.8328 3.2251ZM41.5219 35.0048L28.2859 39.7079L14.9828 34.8032C14.9156 34.8032 14.7812 34.736 14.7141 34.736C14.6469 34.736 14.5125 34.736 14.4453 34.8032L1.47812 39.4392V16.797L8.19687 14.4454C8.19687 14.4454 8.19687 14.4454 8.19687 14.5126C8.26406 14.5798 8.26406 14.647 8.33125 14.7142C8.39844 14.8485 8.46562 14.9829 8.53281 15.1173C8.6 15.1845 8.6 15.2517 8.66719 15.3188C8.73438 15.4532 8.80156 15.5876 8.86875 15.722C8.93594 15.7892 8.93594 15.8563 9.00313 15.9235C9.07031 16.0579 9.1375 16.1923 9.20469 16.2595C9.27187 16.3267 9.27188 16.3938 9.33906 16.461C9.40625 16.5954 9.47344 16.6626 9.54062 16.797C9.60781 16.8642 9.60781 16.9313 9.675 16.9985C9.74219 17.1329 9.80937 17.2001 9.87656 17.3345C9.94375 17.4017 9.94375 17.4688 10.0109 17.536C10.0781 17.6704 10.1453 17.7376 10.2125 17.872C10.2797 17.9392 10.2797 18.0063 10.3469 18.0735C10.4141 18.2079 10.4812 18.2751 10.5484 18.4095C10.6156 18.4767 10.6156 18.5438 10.6828 18.5438C10.75 18.6782 10.8172 18.7454 10.8844 18.8126C10.8844 18.8798 10.9516 18.8798 10.9516 18.947C11.0187 19.0813 11.0859 19.1485 11.1531 19.2157L11.2203 19.2829C11.2875 19.3501 11.3547 19.4845 11.4219 19.5517L11.4891 19.6188C11.5562 19.686 11.6234 19.8204 11.6906 19.8876C11.7578 19.9548 11.825 20.022 11.8922 20.0892C12.0266 20.2907 12.1609 20.4251 12.1609 20.4923C12.2953 20.6938 12.4969 20.761 12.7656 20.761C12.9672 20.761 13.1687 20.6267 13.3703 20.4923C13.3703 20.4923 13.4375 20.4251 13.5719 20.2907L13.6391 20.2235C13.7062 20.1563 13.7063 20.1563 13.7734 20.0892L13.8406 20.022C13.9078 19.9548 13.9078 19.8876 13.975 19.8204C13.975 19.7532 14.0422 19.7532 14.0422 19.686C14.1094 19.6188 14.1766 19.5517 14.1766 19.4845C14.2437 19.4173 14.2437 19.3501 14.3109 19.2829C14.3781 19.2157 14.4453 19.1485 14.5125 19.0142C14.5797 18.947 14.5797 18.8798 14.6469 18.8126C14.7141 18.7454 14.7812 18.6782 14.8484 18.5438C14.9156 18.4767 14.9828 18.4095 14.9828 18.3423C15.05 18.2751 15.1172 18.1407 15.1844 18.0735C15.2516 18.0063 15.3188 17.872 15.3859 17.8048C15.4531 17.7376 15.5203 17.6032 15.5875 17.536C15.6547 17.4688 15.7219 17.3345 15.7891 17.2673C15.8562 17.1329 15.9234 17.0657 15.9906 16.9313C16.0578 16.8642 16.125 16.7298 16.1922 16.6626C16.2594 16.5282 16.3266 16.461 16.3937 16.3267C16.4609 16.1923 16.5281 16.1251 16.5953 15.9907C16.6625 15.8563 16.7297 15.7892 16.7969 15.6548C16.8641 15.5204 16.9312 15.4532 16.9984 15.3188C17.0656 15.1845 17.1328 15.1173 17.2 14.9829C17.2672 14.8485 17.3344 14.7813 17.4016 14.647C17.4688 14.5126 17.5359 14.4454 17.6031 14.311C17.6703 14.1767 17.7375 14.1095 17.8047 13.9751C17.8719 13.8407 17.9391 13.7063 18.0063 13.6392C18.0734 13.5048 18.1406 13.4376 18.1406 13.3032C18.1406 13.3032 18.1406 13.3032 18.1406 13.236L28.0844 16.8642C28.2188 16.9313 28.4203 16.9313 28.5547 16.8642L41.5219 12.2282V35.0048Z" fill="#D3D3D3" stroke="#D3D3D3"/>
	<path d="M35.2734 28.4875C35.4078 28.5547 35.6094 28.5547 35.7437 28.5547C36.1469 28.5547 36.55 28.4203 36.8859 28.2188C37.3562 27.8828 37.6922 27.4125 37.8265 26.875C37.9609 26.3375 37.8265 25.7328 37.5578 25.2625C37.2219 24.7922 36.7515 24.4563 36.214 24.3219C35.0719 24.0531 33.8625 24.7922 33.5937 25.9344C33.4594 26.4719 33.5937 27.0766 33.8625 27.5469C34.2656 28.0172 34.7359 28.3531 35.2734 28.4875ZM35.0719 26.2031C35.139 25.8 35.5422 25.5984 35.8781 25.6656C36.0797 25.7328 36.214 25.8 36.2812 26.0016C36.3484 26.1359 36.4156 26.3375 36.3484 26.5391C36.2812 26.7406 36.214 26.875 36.0125 26.9422C35.8781 27.0094 35.6765 27.0766 35.475 27.0094C35.2734 26.9422 35.139 26.875 35.0719 26.6734C35.0719 26.5391 35.0719 26.4047 35.0719 26.2031Z" fill="#D3D3D3" stroke="#D3D3D3"/>
	<path d="M7.39101 26.2705L6.9207 26.5392L6.65195 26.0689C6.45039 25.733 5.98008 25.5986 5.64414 25.8673C5.3082 26.0689 5.17383 26.5392 5.44258 26.8751L5.71133 27.3455L5.24101 27.6142C4.90508 27.8158 4.7707 28.2861 5.03945 28.622C5.10664 28.8908 5.37539 28.958 5.57695 28.958C5.71133 28.958 5.8457 28.8908 5.98008 28.8236L6.45039 28.5548L6.71914 29.0251C6.85351 29.2267 7.12226 29.3611 7.32383 29.3611C7.4582 29.3611 7.59258 29.2939 7.72695 29.2267C8.06289 29.0251 8.19726 28.5548 7.92851 28.2189L7.65976 27.7486L8.13008 27.4798C8.46601 27.2783 8.60039 26.808 8.33164 26.472C8.19726 26.1361 7.72695 26.0689 7.39101 26.2705Z" fill="#D3D3D3" stroke="#D3D3D3"/>
	<path d="M14.3103 28.2859C13.4369 28.2859 12.2947 28.1515 11.5556 27.95C11.1525 27.8828 10.7494 28.1516 10.6822 28.5547C10.615 28.9578 10.8837 29.3609 11.2869 29.4281C12.0259 29.5625 13.2353 29.764 14.3103 29.764C14.7134 29.764 15.0494 29.4281 15.0494 29.025C15.0494 28.6219 14.7134 28.2859 14.3103 28.2859Z" fill="#D3D3D3" stroke="#D3D3D3"/>
	<path d="M19.8195 25.7328C19.3492 26.4047 18.8117 26.9422 18.1398 27.3453C17.9383 27.4797 17.6695 27.614 17.4008 27.7484C16.9977 27.8828 16.8633 28.3531 16.9977 28.7562C17.132 29.025 17.4008 29.2265 17.6695 29.2265C17.7367 29.2265 17.8711 29.2265 17.9383 29.1594C18.2742 29.025 18.543 28.8906 18.8117 28.689C19.618 28.1515 20.2898 27.5469 20.8945 26.7406C21.1633 26.4047 21.0961 25.9344 20.7602 25.7328C20.5586 25.3297 20.0883 25.3969 19.8195 25.7328Z" fill="#D3D3D3" stroke="#D3D3D3"/>
	<path d="M25.1961 20.8955C24.457 20.8955 24.0539 21.0971 23.6508 21.2314C22.7101 21.6346 21.9039 22.508 21.7023 22.7768C21.4336 23.1127 21.5008 23.583 21.7695 23.8518C21.9039 23.9861 22.1055 24.0533 22.2398 24.0533C22.4414 24.0533 22.643 23.9861 22.7773 23.7846C23.1133 23.3814 23.6508 22.9111 24.1883 22.6424C24.5914 22.508 24.7258 22.4408 25.1961 22.3736C25.5992 22.3736 25.9351 22.0377 25.9351 21.6346C25.9351 21.2314 25.5992 20.8955 25.1961 20.8955Z" fill="#D3D3D3" stroke="#D3D3D3"/>
	<path d="M27.9508 22.0376C27.8164 22.4407 27.9508 22.8438 28.3539 23.0454C29.093 23.3813 30.168 23.9188 30.9742 24.5235C31.1086 24.5907 31.243 24.6579 31.3773 24.6579C31.6461 24.6579 31.8477 24.5235 31.982 24.3219C32.1836 23.986 32.1164 23.5157 31.7805 23.3141C30.8398 22.7094 29.7648 22.1048 28.8914 21.7688C28.5555 21.5001 28.1523 21.7016 27.9508 22.0376Z" fill="#D3D3D3" stroke="#D3D3D3"/>
	<path d="M12.8332 10.2125C14.1098 10.2125 15.1176 9.20474 15.1176 7.92817C15.1176 6.65161 14.1098 5.6438 12.8332 5.6438C11.5566 5.6438 10.5488 6.65161 10.5488 7.92817C10.5488 9.20474 11.6238 10.2125 12.8332 10.2125ZM12.8332 7.12192C13.2363 7.12192 13.6395 7.45786 13.6395 7.92817C13.6395 8.3313 13.3035 8.73442 12.8332 8.73442C12.4301 8.73442 12.027 8.39849 12.027 7.92817C12.0941 7.52505 12.4301 7.12192 12.8332 7.12192Z" fill="#D3D3D3" stroke="#D3D3D3"/>
	</g>
	<defs>
	<clipPath id="clip0_17_284">
	<rect width="43" height="43" fill="white"/>
	</clipPath>
	</defs>
	</svg>
	

