<svg width="25px" height="25px" viewBox="0 0 40 43" fill="#969696" xmlns="http://www.w3.org/2000/svg">
<path d="M10.0196 32.1665H10.013C9.645 32.1665 9.34961 32.4652 9.34961 32.8331C9.34961 33.2011 9.65164 33.4998 10.0196 33.4998C10.3876 33.4998 10.6862 33.2011 10.6862 32.8331C10.6862 32.4652 10.3876 32.1665 10.0196 32.1665Z" fill="#D3D3D3"/>
<path d="M14.0196 32.1665H14.013C13.645 32.1665 13.3496 32.4652 13.3496 32.8331C13.3496 33.2011 13.6516 33.4998 14.0196 33.4998C14.3876 33.4998 14.6862 33.2011 14.6862 32.8331C14.6862 32.4652 14.3876 32.1665 14.0196 32.1665Z" fill="#D3D3D3"/>
<path d="M19.332 22.8333H13.9987C13.63 22.8333 13.332 23.1319 13.332 23.4999C13.332 23.8679 13.63 24.1665 13.9987 24.1665H19.332C19.7007 24.1665 19.9986 23.8679 19.9986 23.4999C19.9986 23.1319 19.7007 22.8333 19.332 22.8333Z" fill="#D3D3D3"/>
<path d="M16.6653 26.8333H13.9987C13.63 26.8333 13.332 27.1319 13.332 27.4999C13.332 27.8679 13.63 28.1665 13.9987 28.1665H16.6653C17.034 28.1665 17.3319 27.8679 17.3319 27.4999C17.332 27.1319 17.034 26.8333 16.6653 26.8333Z" fill="#D3D3D3"/>
<path d="M27.9987 24.8332C27.2634 24.8332 26.6653 24.2352 26.6653 23.4998C26.6653 23.1319 26.3673 22.8332 25.9987 22.8332C25.63 22.8332 25.332 23.1319 25.332 23.4998C25.332 24.7385 26.1847 25.7738 27.332 26.0719V26.1665C27.332 26.5345 27.63 26.8332 27.9987 26.8332C28.3673 26.8332 28.6653 26.5345 28.6653 26.1665V26.0719C29.8126 25.7739 30.6653 24.7385 30.6653 23.4998C30.6653 22.0291 29.4693 20.8332 27.9987 20.8332C27.2634 20.8332 26.6653 20.2352 26.6653 19.4998C26.6653 18.7645 27.2633 18.1665 27.9987 18.1665C28.734 18.1665 29.332 18.7645 29.332 19.4998C29.332 19.8678 29.63 20.1665 29.9987 20.1665C30.3673 20.1665 30.6653 19.8678 30.6653 19.4998C30.6653 18.2612 29.8126 17.2259 28.6653 16.9278V16.8331C28.6653 16.4652 28.3673 16.1665 27.9987 16.1665C27.63 16.1665 27.332 16.4652 27.332 16.8331V16.9278C26.1847 17.2258 25.332 18.2612 25.332 19.4998C25.332 20.9705 26.528 22.1665 27.9987 22.1665C28.734 22.1665 29.332 22.7644 29.332 23.4998C29.332 24.2351 28.734 24.8332 27.9987 24.8332Z" fill="#D3D3D3"/>
<path d="M26.0196 32.1665H26.013C25.645 32.1665 25.3496 32.4652 25.3496 32.8331C25.3496 33.2011 25.6516 33.4998 26.0196 33.4998C26.3876 33.4998 26.6862 33.2011 26.6862 32.8331C26.6862 32.4652 26.3877 32.1665 26.0196 32.1665Z" fill="#D3D3D3"/>
<path d="M34.0196 33.4998C34.3876 33.4998 34.6862 33.2011 34.6862 32.8331C34.6862 32.4652 34.3876 32.1665 34.0196 32.1665H34.013C33.645 32.1665 33.3496 32.4652 33.3496 32.8331C33.3496 33.2011 33.6516 33.4998 34.0196 33.4998Z" fill="#D3D3D3"/>
<path d="M30.0196 32.1665H30.013C29.645 32.1665 29.3496 32.4652 29.3496 32.8331C29.3496 33.2011 29.6516 33.4998 30.0196 33.4998C30.3876 33.4998 30.6862 33.2011 30.6862 32.8331C30.6862 32.4652 30.3877 32.1665 30.0196 32.1665Z" fill="#D3D3D3"/>
<path d="M27.3327 9.50002H29.9993C30.368 9.50002 30.6659 9.20135 30.6659 8.83339C30.6659 8.46542 30.368 8.16675 29.9993 8.16675H27.3327C26.964 8.16675 26.666 8.46542 26.666 8.83339C26.6659 9.20135 26.964 9.50002 27.3327 9.50002Z" fill="#D3D3D3"/>
<path d="M18.0196 32.1665H18.013C17.645 32.1665 17.3496 32.4652 17.3496 32.8331C17.3496 33.2011 17.6516 33.4998 18.0196 33.4998C18.3876 33.4998 18.6862 33.2011 18.6862 32.8331C18.6862 32.4652 18.3876 32.1665 18.0196 32.1665Z" fill="#D3D3D3"/>
<path d="M9.99867 24.1665H11.332C11.7007 24.1665 11.9987 23.8679 11.9987 23.4999C11.9987 23.1319 11.7007 22.8333 11.332 22.8333H9.99867C9.63 22.8333 9.33203 23.1319 9.33203 23.4999C9.33203 23.8679 9.63 24.1665 9.99867 24.1665Z" fill="#D3D3D3"/>
<path d="M9.99867 28.1665H11.332C11.7007 28.1665 11.9987 27.8679 11.9987 27.4999C11.9987 27.1319 11.7007 26.8333 11.332 26.8333H9.99867C9.63 26.8333 9.33203 27.1319 9.33203 27.4999C9.33203 27.8679 9.63 28.1665 9.99867 28.1665Z" fill="#D3D3D3"/>
<path d="M36.6658 1.5H3.33265C2.96398 1.5 2.66602 1.79867 2.66602 2.16664V40.8331C2.66602 41.1024 2.82805 41.3458 3.07734 41.4491C3.16 41.4831 3.24664 41.4998 3.33265 41.4998C3.50601 41.4998 3.67664 41.4318 3.80398 41.3045L7.33264 37.7758L10.8613 41.3045C11.122 41.5652 11.5433 41.5652 11.8039 41.3045L13.9993 39.1091L16.1946 41.3045C16.4553 41.5652 16.8766 41.5652 17.1372 41.3045L19.3325 39.1091L20.1945 39.9712C20.4552 40.2318 20.8766 40.2318 21.1372 39.9712L23.3325 37.7759L25.5278 39.9712C25.7885 40.2318 26.2098 40.2318 26.4705 39.9712L27.9991 38.4425L29.5278 39.9712C29.7885 40.2318 30.2098 40.2318 30.4704 39.9712L33.9991 36.4425L36.1944 38.6378C36.2078 38.6518 36.2217 38.6645 36.2364 38.6765C36.2364 38.6772 36.2371 38.6772 36.2371 38.6772V38.6779C36.3464 38.7692 36.485 38.8259 36.6364 38.8326C36.6611 38.8333 36.6857 38.8333 36.7117 38.8319H36.7124C36.8471 38.8219 36.9711 38.7732 37.0717 38.6952C37.1078 38.6679 37.1404 38.6366 37.1697 38.6026C37.2704 38.486 37.3317 38.3346 37.3324 38.1679V38.1666V2.16664C37.3325 1.79867 37.0345 1.5 36.6658 1.5ZM35.9992 36.5572L34.4705 35.0285C34.2098 34.7679 33.7885 34.7679 33.5278 35.0285L29.9992 38.5572L28.4705 37.0285C28.2099 36.7678 27.7885 36.7678 27.5279 37.0285L25.9992 38.5572L23.8039 36.3619C23.5433 36.1012 23.1219 36.1012 22.8612 36.3619L20.6659 38.5572L19.8039 37.6952C19.5432 37.4345 19.1219 37.4345 18.8613 37.6952L16.666 39.8905L14.4707 37.6952C14.3407 37.5652 14.17 37.4999 13.9993 37.4999C13.8286 37.4999 13.658 37.5652 13.528 37.6952L11.3327 39.8905L7.80404 36.3618C7.54334 36.1011 7.12201 36.1011 6.86139 36.3618L3.99937 39.2238V2.83335H35.9992V36.5572H35.9992Z" fill="#D3D3D3"/>
<path d="M6.01961 33.4998C6.38757 33.4998 6.68624 33.2011 6.68624 32.8331C6.68624 32.4652 6.38757 32.1665 6.01961 32.1665H6.01297C5.645 32.1665 5.34961 32.4652 5.34961 32.8331C5.34961 33.2011 5.65164 33.4998 6.01961 33.4998Z" fill="#D3D3D3"/>
<path d="M9.99867 20.1665H11.332C11.7007 20.1665 11.9987 19.8679 11.9987 19.4999C11.9987 19.1319 11.7007 18.8333 11.332 18.8333H9.99867C9.63 18.8333 9.33203 19.1319 9.33203 19.4999C9.33203 19.8679 9.63 20.1665 9.99867 20.1665Z" fill="#D3D3D3"/>
<path d="M22.0196 33.4998C22.3876 33.4998 22.6862 33.2011 22.6862 32.8331C22.6862 32.4652 22.3876 32.1665 22.0196 32.1665H22.013C21.645 32.1665 21.3496 32.4652 21.3496 32.8331C21.3496 33.2011 21.6516 33.4998 22.0196 33.4998Z" fill="#D3D3D3"/>
<path d="M13.9987 16.1665H17.9987C18.3673 16.1665 18.6653 15.8679 18.6653 15.4999C18.6653 15.1319 18.3673 14.8333 17.9987 14.8333H13.9987C13.63 14.8333 13.332 15.1319 13.332 15.4999C13.332 15.8679 13.63 16.1665 13.9987 16.1665Z" fill="#D3D3D3"/>
<path d="M9.99867 16.1665H11.332C11.7007 16.1665 11.9987 15.8679 11.9987 15.4999C11.9987 15.1319 11.7007 14.8333 11.332 14.8333H9.99867C9.63 14.8333 9.33203 15.1319 9.33203 15.4999C9.33203 15.8679 9.63 16.1665 9.99867 16.1665Z" fill="#D3D3D3"/>
<path d="M20.6653 18.8333H13.9987C13.63 18.8333 13.332 19.1319 13.332 19.4999C13.332 19.8679 13.63 20.1665 13.9987 20.1665H20.6653C21.034 20.1665 21.3319 19.8679 21.3319 19.4999C21.3319 19.1319 21.034 18.8333 20.6653 18.8333Z" fill="#D3D3D3"/>
<path d="M9.99867 9.50002H20.6653C21.0339 9.50002 21.3319 9.20135 21.3319 8.83339C21.3319 8.46542 21.0339 8.16675 20.6653 8.16675H9.99867C9.63 8.16675 9.33203 8.46542 9.33203 8.83339C9.33203 9.20135 9.63 9.50002 9.99867 9.50002Z" fill="#D3D3D3"/>
</svg>
