<svg width="25" height="25" viewBox="0 0 39 43" fill="#969696" xmlns="http://www.w3.org/2000/svg">
<g clip-path="url(#clip0_23_44)">
<path fill-rule="evenodd" clip-rule="evenodd" d="M19.2198 14.7899H23.6508C24.3781 14.7899 25.2843 15.6392 25.4086 16.2874L26.7557 23.3227C26.88 23.9717 25.9789 24.8979 25.2524 24.8979H18.6118C16.8909 24.8979 15.9679 24.5932 16.3047 22.6996L17.4343 16.3491C17.5502 15.6971 18.4925 14.7899 19.2198 14.7899ZM35.0979 31.1996V29.8186C35.0979 29.0318 33.7802 29.0318 33.7802 29.8186V31.1996H10.1151V11.8002H33.7878C33.7836 11.8306 33.7802 11.8626 33.7802 11.8961V13.0913C33.7802 13.8781 35.0979 13.8781 35.0979 13.0913V11.8961C35.0979 11.8626 35.0954 11.8306 35.0912 11.8002H40.8231C41.0952 11.8002 41.343 11.9022 41.5227 12.0645C41.7016 12.2275 41.8141 12.4529 41.8141 12.699V30.3015C41.8141 30.5491 41.7024 30.7738 41.5219 30.9368C41.4302 31.0202 41.3213 31.0864 41.2014 31.1315C41.0815 31.1766 40.9529 31.1997 40.8231 31.1996H35.0979ZM33.7802 27.4291C33.7802 28.2152 35.0979 28.2152 35.0979 27.4291V26.234C35.0979 25.4471 33.7802 25.4471 33.7802 26.234V27.4291ZM33.7802 23.8445C33.7802 24.6313 35.0979 24.6313 35.0979 23.8445V22.6493C35.0979 21.8625 33.7802 21.8625 33.7802 22.6493V23.8445ZM33.7802 20.2598C33.7802 21.0467 35.0979 21.0467 35.0979 20.2598V19.0654C35.0979 18.2786 33.7802 18.2786 33.7802 19.0654V20.2598ZM33.7802 16.6759C33.7802 17.462 35.0979 17.462 35.0979 16.6759V15.4808C35.0979 14.6939 33.7802 14.6939 33.7802 15.4808V16.6759ZM2.17688 10.7246H40.8231C41.4219 10.7246 41.9662 10.947 42.3609 11.3043C42.7548 11.6623 43 12.1566 43 12.699V30.3015C43 30.8416 42.7539 31.3344 42.36 31.6924L42.3558 31.6963C41.9611 32.0535 41.4169 32.2752 40.8231 32.2752H2.17688C1.57975 32.2752 1.03385 32.0527 0.639121 31.6947L0.603848 31.6597C0.230957 31.3055 0 30.8256 0 30.3008V26.3132C0 26.0374 0.228437 25.8112 0.522383 25.7792C1.54951 25.5781 2.44982 25.0617 3.09063 24.3487C3.72891 23.6388 4.11188 22.7301 4.11188 21.7391C4.11188 20.7481 3.72891 19.8393 3.09063 19.1287C2.43975 18.405 1.5218 17.884 0.474512 17.6898C0.189805 17.6372 -0.00503906 17.4056 0.00251953 17.1505L0.00335937 12.699C0.000839844 12.1559 0.246074 11.6623 0.639961 11.3043L0.678594 11.273C1.06996 10.9341 1.59906 10.7246 2.17688 10.7246ZM17.3982 28.2099L18.6261 25.6276H20.1403L19.7355 26.4571H23.3233L22.9051 25.6048H24.3941L25.6085 28.1626H24.1455L23.7147 27.3103H19.2921L18.8872 28.2099H17.3982ZM19.7666 22.3195C20.3074 22.3195 20.7467 22.7179 20.7467 23.2084C20.7467 23.699 20.3074 24.0973 19.7666 24.0973C19.2257 24.0973 18.7865 23.699 18.7865 23.2084C18.7865 22.7179 19.2257 22.3195 19.7666 22.3195ZM20.5711 15.627H22.3373C22.3835 15.627 22.4205 15.6605 22.4205 15.7017V16.4543C22.4205 16.4954 22.3827 16.5289 22.3373 16.5289H20.5711C20.5258 16.5289 20.4888 16.4954 20.4888 16.4543V15.7017C20.4888 15.6605 20.5258 15.627 20.5711 15.627ZM17.4939 21.4915L18.2254 17.379H24.7468L25.4145 21.4915H17.4939ZM23.1419 22.3195C23.6836 22.3195 24.122 22.7179 24.122 23.2084C24.122 23.699 23.6836 24.0973 23.1419 24.0973C22.601 24.0973 22.1626 23.699 22.1626 23.2084C22.1626 22.7179 22.601 22.3195 23.1419 22.3195Z" fill="#D3D3D3"/>
</g>
<defs>
<clipPath id="clip0_23_44">
<rect width="39" height="43" fill="white"/>
</clipPath>
</defs>
</svg>
