<svg width="25px" height="25px" viewBox="0 0 42 39" fill="#969696" xmlns="http://www.w3.org/2000/svg">
<path clip-rule="evenodd" d="M1.02609 33.4498C8.74911 33.4347 16.471 33.4347 24.1917 33.4498C24.4131 33.4506 24.6252 33.5341 24.7821 33.6821C24.9389 33.8301 25.0279 34.0306 25.0297 34.2404C25.0297 35.423 24.503 37.7364 21.6812 37.7364H3.54001C0.718262 37.7364 0.194957 35.423 0.194957 34.2404C0.195849 34.0315 0.283594 33.8314 0.439171 33.6834C0.594748 33.5354 0.805623 33.4515 1.02609 33.4498ZM20.4739 14.3334C26.9143 19.0315 29.2127 17.1782 32.9032 15.4545C35.7318 14.1358 36.8366 12.8851 40.2705 14.2038V9.41502H20.4807V14.3334H20.4739ZM33.0469 7.9732L34.3398 3.43712C34.3787 3.27694 34.4547 3.12698 34.5624 2.99809C34.6701 2.8692 34.8066 2.76461 34.9623 2.6919L40.2569 0.129018C40.5314 -0.00738877 40.8513 -0.036949 41.1485 0.0466246C41.4457 0.130198 41.6967 0.320311 41.8482 0.576523C41.9997 0.832736 42.0397 1.13483 41.9597 1.41855C41.8797 1.70227 41.686 1.94522 41.4198 2.09573L36.5356 4.44802L35.5095 7.9732L35.6018 7.70103H41.2453C41.4426 7.70438 41.6307 7.78032 41.7699 7.91276C41.909 8.0452 41.9883 8.22375 41.991 8.41061V17.567C41.991 23.5125 38.5707 28.1264 32.161 28.5832V36.949H37.1376C37.5583 36.949 37.8934 37.5776 37.8934 37.9729C37.8934 38.3682 37.5514 39 37.1376 39H26.2747L26.4389 38.8348C26.9623 38.2809 27.376 37.6421 27.6599 36.949H28.9528V28.6091C28.6108 28.6091 28.2687 28.5703 27.9267 28.5346C27.8333 28.247 27.712 27.9683 27.5642 27.7019C27.7257 27.5096 27.8699 27.3048 27.9951 27.0895C28.3131 26.5367 28.5075 25.9278 28.5664 25.3007C28.6252 24.6736 28.5472 24.0418 28.3371 23.4445C27.9925 22.4445 27.4322 21.5232 26.692 20.739C25.1255 19.0283 22.3653 17.2851 18.6645 16.3326V8.41061C18.6645 8.2207 18.7442 8.03857 18.8859 7.90428C19.0277 7.76999 19.22 7.69455 19.4204 7.69455H33.1324L33.0469 7.96672V7.9732ZM23.1041 26.4837H2.39421C1.75922 26.4837 1.15025 26.2447 0.701247 25.8194C0.252246 25.394 0 24.8171 0 24.2156C0 20.9756 6.78928 18.6395 12.4943 18.5876C23.7129 18.4807 28.7476 26.4804 23.0972 26.4804L23.1041 26.4837ZM18.3157 21.2542C18.5709 21.2536 18.8205 21.3247 19.033 21.4585C19.2455 21.5923 19.4113 21.7829 19.5094 22.006C19.6075 22.2291 19.6336 22.4749 19.5842 22.712C19.5348 22.9492 19.4123 23.1671 19.2321 23.3383C19.0519 23.5094 18.8221 23.6261 18.5719 23.6735C18.3217 23.7209 18.0623 23.6969 17.8264 23.6045C17.5906 23.5122 17.389 23.3556 17.2472 23.1547C17.1054 22.9537 17.0296 22.7174 17.0296 22.4757C17.0296 22.1523 17.165 21.8421 17.4061 21.6131C17.6472 21.3841 17.9743 21.2551 18.3157 21.2542ZM7.09369 21.3417C7.34915 21.3398 7.59945 21.4098 7.81285 21.5428C8.02624 21.6758 8.19311 21.8659 8.29228 22.089C8.39145 22.312 8.41845 22.5579 8.36987 22.7955C8.32128 23.0331 8.19928 23.2516 8.01937 23.4234C7.83945 23.5952 7.60971 23.7125 7.35931 23.7605C7.1089 23.8084 6.84911 23.7848 6.6129 23.6926C6.37669 23.6004 6.17469 23.4439 6.03255 23.2428C5.8904 23.0417 5.81451 22.8052 5.8145 22.5632C5.8145 22.2398 5.94988 21.9296 6.19096 21.7006C6.43204 21.4716 6.75914 21.3425 7.10053 21.3417H7.09369ZM12.6619 20.1785C12.917 20.1785 13.1663 20.2501 13.3783 20.3844C13.5904 20.5186 13.7556 20.7094 13.8532 20.9326C13.9508 21.1558 13.9764 21.4014 13.9266 21.6383C13.8769 21.8753 13.754 22.0929 13.5737 22.2637C13.3934 22.4346 13.1636 22.5509 12.9135 22.598C12.6634 22.6452 12.4041 22.621 12.1685 22.5285C11.9329 22.4361 11.7315 22.2795 11.5898 22.0786C11.4481 21.8778 11.3725 21.6416 11.3725 21.4C11.3725 21.076 11.5083 20.7653 11.7502 20.5363C11.992 20.3072 12.3199 20.1785 12.6619 20.1785ZM24.9682 29.5941C25.0028 29.649 25.0217 29.7116 25.0229 29.7756C25.0229 29.8177 25.0229 29.863 25.0229 29.9084C25.0229 29.9538 25.0229 29.9991 25.0229 30.038C25.0217 30.103 25.0028 30.1666 24.9682 30.2227C24.78 31.0068 24.0173 32.0371 21.6778 32.0371H3.54001C1.20052 32.0371 0.441218 31.01 0.249682 30.2227C0.215028 30.1666 0.196183 30.103 0.194957 30.038C0.194957 29.9991 0.194957 29.9538 0.194957 29.9084C0.191625 29.8642 0.191625 29.8198 0.194957 29.7756C0.196149 29.7116 0.215017 29.649 0.249682 29.5941C0.441218 28.8068 1.20394 27.7797 3.54001 27.7797H12.939L16.4174 31.1688L19.8377 27.7797H21.6812C24.0207 27.7797 24.7835 28.8068 24.9716 29.5941H24.9682Z" fill="#D3D3D3"/>
</svg>
