<svg width="25" height="25" viewBox="0 0 39 36" fill="#969696" xmlns="http://www.w3.org/2000/svg">
<path d="M15.4158 0.234375C14.3747 0.390625 14.1826 0.5 13.9583 1.04687C13.8622 1.26562 13.7982 1.3125 13.7021 1.28125C13.638 1.25 13.3017 1.20312 12.9974 1.1875L12.4208 1.15625L11.6841 1.625C10.8193 2.1875 9.87436 3.09375 9.34584 3.84375C8.01654 5.79688 7.58412 8.3125 8.19272 10.5156C8.33686 11.0312 8.41693 11.5625 8.44897 12.2031C8.49701 13.1719 8.60912 13.5469 8.94545 14.125C9.18568 14.5312 9.68217 14.9531 10.0345 15.0625C10.2908 15.1406 10.3548 15.2031 10.5951 15.7188C10.9955 16.5625 11.54 17.3281 12.1806 17.9844L12.7572 18.5469V19.0313C12.7572 19.8438 12.613 19.9219 8.9935 21C4.25287 22.4062 2.97162 22.9219 1.99467 23.8125C0.777481 24.9375 0.425138 26.125 0.649356 28.4375C0.729434 29.3125 0.921622 30.5625 1.01772 30.8437C1.03373 30.9219 1.46615 31.1406 2.0267 31.3906C5.69428 32.9531 9.58607 34.0156 13.2857 34.4688C14.3587 34.5938 18.2986 34.5938 19.3716 34.4688C20.3646 34.3437 21.854 34.1094 22.5427 33.9531L23.0552 33.8438L22.863 33.6562C22.7029 33.5 22.6708 33.4062 22.6708 32.9219C22.6708 32.5469 22.7189 32.2969 22.815 32.1094C22.9271 31.875 22.9912 31.8438 23.2794 31.8281C23.5517 31.8125 23.5997 31.7812 23.5677 31.6719C23.3755 31.0312 22.2064 25.5312 22.2064 25.2812C22.2064 24.8594 22.3986 24.5469 22.7829 24.375C23.0872 24.2344 23.2794 24.2188 27.0912 24.2188H31.079L30.6947 23.8281C29.8138 22.9531 28.4525 22.4062 23.6318 20.9688C20.9412 20.1719 20.4287 19.9844 20.0923 19.6719C19.9001 19.5 19.8841 19.4219 19.8841 19.0781V18.6875L20.5728 18.0156C21.3095 17.2813 21.806 16.5781 22.2384 15.6875C22.4787 15.1875 22.5427 15.1094 22.831 15.0156C23.2314 14.8594 23.4076 14.7344 23.7599 14.2656C24.1603 13.75 24.3685 13.0625 24.3845 12.1094C24.4005 11.5469 24.4646 11.0938 24.6087 10.5625C24.881 9.5625 24.9611 8.09375 24.7689 7.07812C24.3525 4.75 23.0232 2.79688 20.9892 1.5C19.6439 0.640625 18.2986 0.25 16.6329 0.203125C16.1204 0.203125 15.5439 0.21875 15.4158 0.234375ZM16.1044 6.26563C17.706 7.28125 19.756 8.14062 21.3896 8.48438C21.7099 8.54688 22.4787 8.625 23.1033 8.65625L24.2404 8.70312L24.1923 9.20312C24.1763 9.46875 24.0482 10.0156 23.9521 10.4062C23.824 10.875 23.7439 11.4375 23.7119 12.0625C23.6798 12.625 23.5997 13.1406 23.5197 13.3438C23.2794 13.9844 22.7189 14.4688 22.2224 14.4688C22.0783 14.4688 22.0142 14.5625 21.806 15.0469C21.1654 16.5938 20.0122 17.9062 18.6349 18.6562C18.0103 19 16.8732 19.3438 16.3767 19.3438C15.3197 19.3438 13.4298 18.3281 12.4849 17.25C12.2767 17.0156 12.0044 16.6719 11.8763 16.4688C11.6201 16.0938 10.9955 14.8906 10.9154 14.6094C10.8994 14.5 10.8193 14.4531 10.6751 14.4531C9.77826 14.4531 9.13764 13.3594 9.16967 11.9062C9.16967 11.4062 9.15365 11.0938 9.05756 10.8594C8.9935 10.6719 8.94545 10.5156 8.96147 10.5C8.97748 10.5 9.24975 10.4062 9.57006 10.3281C11.9404 9.73438 13.8142 8.28125 14.8392 6.23438C14.9994 5.92188 15.1755 5.65625 15.2236 5.6875C15.2236 5.71875 15.64 5.96875 16.1044 6.26563ZM14.7912 19.6875C15.5599 20 16.1845 20.0938 16.8091 20.0156C17.3857 19.9219 18.2025 19.6562 18.7951 19.375C19.1314 19.2031 19.1634 19.2031 19.1634 19.3281C19.1634 19.4062 19.2435 19.625 19.3556 19.8281C19.4997 20.0938 19.5318 20.2187 19.4677 20.3281C19.2435 20.75 16.3767 24.9062 16.3447 24.875C16.3287 24.8594 15.624 23.75 14.7751 22.4375L13.2537 20.0469L13.3978 19.7656C13.4779 19.6094 13.5419 19.375 13.5419 19.2656V19.0469L13.9423 19.2656C14.1345 19.3906 14.5189 19.5781 14.7912 19.6875Z" fill="#D3D3D3"/>
<path d="M23.5189 25.0469C23.1825 25.2344 23.1986 25.375 23.8552 28.2656C24.2075 29.7812 24.5278 31.1094 24.5919 31.2188C24.8161 31.6563 24.8001 31.6562 28.8841 31.6562H32.6157L32.84 31.4687C32.9681 31.375 33.0962 31.1875 33.1443 31.0781C33.2724 30.75 34.3935 25.75 34.3935 25.5C34.3935 25.3437 34.3294 25.2344 34.1853 25.125C33.9931 24.9688 33.929 24.9688 28.804 24.9688C25.3607 24.9844 23.615 25 23.5189 25.0469ZM25.3767 26.1875C25.4247 26.4375 25.4888 26.6875 25.5208 26.75C25.5528 26.8281 25.4407 26.8594 24.9282 26.8594C24.3196 26.8594 24.3036 26.8594 24.2556 26.6562C24.2396 26.5469 24.1755 26.3281 24.1435 26.1875C24.0314 25.7344 24.0153 25.7344 24.688 25.7344H25.2966L25.3767 26.1875ZM28.4677 26.2812V26.8438H27.3946H26.3216L26.1935 26.3281C26.1294 26.0312 26.0653 25.7812 26.0653 25.7656C26.0653 25.7344 26.6099 25.7187 27.2665 25.7187H28.4677V26.2812ZM31.4786 26.2656L31.3505 26.8125L30.2935 26.8281L29.2364 26.8438V26.2812V25.7187H30.4216H31.6068L31.4786 26.2656ZM33.4806 26.2812L33.3525 26.8438H32.7439H32.1513L32.1993 26.5625C32.2314 26.4062 32.2954 26.1562 32.3275 26L32.4075 25.7187H33.0001H33.6087L33.4806 26.2812ZM25.7611 27.875C25.7931 28.0312 25.8571 28.2812 25.8892 28.4375L25.9372 28.7188H25.3446C24.9443 28.7188 24.7361 28.6875 24.72 28.625C24.704 28.5781 24.64 28.3281 24.5759 28.0625L24.4638 27.5937H25.0724H25.665L25.7611 27.875ZM28.4677 28.1562V28.7188H27.6189C27.0103 28.7188 26.754 28.6875 26.738 28.625C26.722 28.5781 26.6579 28.3281 26.5939 28.0625L26.4818 27.5937H27.4747H28.4677V28.1562ZM31.1583 27.6406C31.1583 27.6562 31.1103 27.9062 31.0302 28.2031L30.9021 28.7188H30.0693H29.2364V28.1562V27.5937H30.1974C30.7259 27.5937 31.1583 27.6094 31.1583 27.6406ZM33.1603 27.6406C33.1603 27.6562 33.1122 27.9062 33.0321 28.2031L32.904 28.7188H32.2954C31.7989 28.7188 31.6868 28.7031 31.7189 28.6094C31.7349 28.5469 31.7989 28.2969 31.863 28.0469L31.9591 27.5937H32.5517C32.888 27.5937 33.1603 27.6094 33.1603 27.6406ZM26.2736 30.1719L26.4337 30.875L25.8571 30.8906C25.5368 30.9062 25.2646 30.8906 25.2486 30.875C25.2165 30.8437 24.9282 29.6562 24.9122 29.5312C24.9122 29.5 25.1845 29.4844 25.5048 29.4844H26.1134L26.2736 30.1719ZM28.4677 30.1875V30.9063H27.8591C27.2825 30.9063 27.2505 30.9062 27.2025 30.7344C26.9943 29.8906 26.9302 29.5781 26.9302 29.5312C26.9302 29.5 27.2825 29.4844 27.6989 29.4844H28.4677V30.1875ZM30.6138 30.0937C30.5337 30.4375 30.4696 30.7656 30.4696 30.8125C30.4696 30.875 30.2935 30.9063 29.8611 30.9063H29.2525V30.1875V29.4687H30.0212H30.79L30.6138 30.0937ZM32.5997 30.1719L32.4396 30.875L31.831 30.8906C31.4786 30.9062 31.2384 30.8906 31.2384 30.8437C31.2384 30.7656 31.4466 29.8438 31.5107 29.6094C31.5427 29.5 31.6548 29.4844 32.1513 29.4844H32.7599L32.5997 30.1719Z" fill="#D3D3D3"/>
<path d="M34.8908 28.6719L33.9619 32.375L29.2213 32.4063C24.849 32.4375 24.4486 32.4531 24.3365 32.5781C24.2404 32.6875 24.2244 32.75 24.2884 32.9219L24.3525 33.125L29.4455 33.1406L34.5384 33.1563L34.6025 32.9219C34.6345 32.7813 35.067 31.1094 35.5474 29.2031L36.4283 25.7344H37.2611C38.174 25.7344 38.3982 25.6719 38.3982 25.3906C38.3982 25.0156 38.2541 24.9844 36.9888 24.9844H35.8197L34.8908 28.6719Z" fill="#D3D3D3"/>
<path d="M26.3226 34.0313C25.6659 34.3438 25.6659 35.3438 26.3226 35.672C26.9632 36.0001 27.6999 35.5313 27.6999 34.8126C27.6999 34.4688 27.5077 34.1876 27.1554 34.0157C26.8671 33.8751 26.6429 33.8751 26.3226 34.0313Z" fill="#D3D3D3"/>
<path d="M32.1207 34.0157C31.7203 34.1876 31.5762 34.4063 31.5762 34.8595C31.5762 35.2188 31.6082 35.297 31.8164 35.5001C32.2969 35.9688 33.0977 35.8282 33.3539 35.2188C33.5621 34.7501 33.3379 34.2188 32.8734 34.0313C32.5691 33.8907 32.425 33.8907 32.1207 34.0157Z" fill="#D3D3D3"/>
</svg>
