<svg width="25" height="25" viewBox="0 0 42 39" fill="#969696" xmlns="http://www.w3.org/2000/svg">
<path d="M9.81138 6.93155C9.20434 7.0382 8.44966 7.40382 8.0395 7.79991C7.35044 8.43976 7.02231 9.29288 7.02231 10.5726C7.02231 11.1515 7.00591 11.2886 6.87466 11.4105C6.38247 11.8675 6.71059 13.33 7.44888 14.1526C7.59653 14.3202 7.777 14.6249 7.87544 14.823C8.41684 16.2093 9.86059 17.1691 11.1403 17.0015C12.1411 16.8796 13.1418 16.1484 13.634 15.1886C13.9622 14.564 14.0114 14.4878 14.4379 13.8784C14.6184 13.6194 14.8481 13.2234 14.9137 12.9948C15.0778 12.4921 15.045 11.6237 14.8645 11.4257C14.7661 11.3343 14.7168 11.0601 14.684 10.4964C14.6348 9.65851 14.4543 9.04913 14.159 8.74445C14.077 8.65304 13.9622 8.43976 13.9129 8.25695C13.7325 7.63234 13.0598 7.1753 11.9606 6.93155C11.37 6.84015 10.4348 6.82491 9.81138 6.93155Z" fill="#D3D3D3"/>
<path d="M30.0059 6.96204C28.923 7.20579 28.1355 7.79993 27.6762 8.69876C27.4465 9.17102 27.4137 9.26243 27.3973 10.207C27.3645 11.1363 27.348 11.2277 27.1676 11.4257C27.0035 11.6085 26.9707 11.7304 26.9707 12.1417C26.9707 12.812 27.1348 13.2995 27.5449 13.8784C27.9879 14.4726 28.0371 14.5488 28.3488 15.1886C28.4965 15.5085 28.7918 15.8741 29.0379 16.1179C30.2191 17.2452 31.8762 17.2909 33.0902 16.2398C33.5332 15.8589 34.0254 15.1429 34.1895 14.6402C34.2223 14.5335 34.3699 14.3202 34.534 14.1527C35.0918 13.5433 35.4199 12.6292 35.3215 11.9132C35.3051 11.7152 35.2066 11.4866 35.1246 11.4257C35.0098 11.3191 34.977 11.121 34.9441 10.4812C34.9113 9.55188 34.8129 9.20149 34.5176 8.88157C34.4191 8.75969 34.2715 8.48547 34.2059 8.30266C33.9926 7.64758 33.4348 7.26672 32.3355 6.99251C31.6137 6.82493 30.6949 6.80969 30.0059 6.96204Z" fill="#D3D3D3"/>
<path d="M19.8015 11.1973C18.2593 11.4258 17.0616 12.218 16.471 13.4063C16.1593 14.0461 16.0609 14.5184 16.0609 15.6153C16.0609 16.4227 16.0444 16.5903 15.9296 16.6817C15.4374 17.0625 15.4702 18.4336 15.9952 19.3934C16.0773 19.5457 16.3234 19.8809 16.5366 20.1551C16.7499 20.4293 16.996 20.8102 17.0616 21.0387C17.2421 21.5567 17.9148 22.4707 18.3741 22.8364C19.1944 23.4914 20.2773 23.7961 21.1796 23.6742C22.5577 23.461 23.9359 22.3032 24.4116 20.9473C24.4773 20.734 24.6905 20.4141 24.871 20.2313C25.839 19.2106 26.2163 17.3672 25.5929 16.7883C25.478 16.6817 25.4452 16.4836 25.4124 15.6457C25.3632 14.5641 25.2319 14.0918 24.8218 13.5891C24.7069 13.452 24.5593 13.1625 24.4937 12.9493C24.346 12.4618 23.8538 11.9743 23.296 11.7305C22.3116 11.243 20.8679 11.0602 19.8015 11.1973Z" fill="#D3D3D3"/>
<path d="M6.67685 16.6512C4.64248 17.4282 3.98623 17.7633 3.36279 18.3575C2.72295 18.9516 2.39482 19.4848 2.03388 20.475C1.78779 21.1758 1.57451 22.2879 1.65654 22.5622C1.70576 22.7754 2.37841 23.0344 3.55966 23.2934C5.26591 23.6743 6.98857 23.8418 9.66279 23.918L11.5331 23.9637L12.0089 23.7047C12.78 23.2629 13.8628 22.7907 15.1261 22.3336C16.1925 21.9376 16.3073 21.8766 16.2581 21.7395C16.2089 21.5872 15.9136 21.0997 15.2573 20.1247C14.5847 19.1344 14.3058 17.6719 14.6339 16.8493L14.7487 16.5293L14.3878 16.4075C14.1909 16.3313 13.994 16.3161 13.9612 16.3465C13.9284 16.377 13.8136 16.7426 13.7315 17.1235C13.2394 19.1192 12.6815 20.5208 12.1237 21.1149C11.6151 21.6481 10.8112 21.8461 10.2042 21.5872C9.84326 21.4348 9.33466 20.9168 9.08857 20.4446C8.71123 19.759 8.54716 19.2868 8.1206 17.7633L7.71045 16.2551L6.67685 16.6512Z" fill="#D3D3D3"/>
<path d="M34.0758 16.9559C33.4687 19.3629 32.993 20.4902 32.3859 21.1148C31.9758 21.5262 31.6148 21.6937 31.1555 21.6937C29.9086 21.6937 29.1047 20.475 28.3336 17.4586C28.1859 16.8797 28.0383 16.377 28.0055 16.3465C27.9727 16.316 27.6773 16.377 27.3656 16.4988C26.8242 16.6969 26.7914 16.7121 26.8406 16.8949C27.1359 18.0527 26.8406 19.3324 26.0367 20.3836C25.6922 20.8254 25.1836 21.709 25.1836 21.8309C25.1836 21.8613 25.5445 22.0289 25.9711 22.1813C27.0867 22.5926 28.9406 23.3695 29.4984 23.6895L29.9742 23.9637L32.0742 23.918C34.8797 23.857 36.6844 23.6742 38.4234 23.2934C39.6047 23.0344 40.2773 22.7754 40.3266 22.5621C40.3922 22.2879 40.1953 21.1758 39.9492 20.475C39.5883 19.4848 39.2602 18.9668 38.6203 18.3574C38.1281 17.9004 37.9148 17.7633 37.1273 17.3977C36.6188 17.1691 35.7656 16.8188 35.2242 16.6055L34.2398 16.2246L34.0758 16.9559Z" fill="#D3D3D3"/>
<path d="M15.4206 23.2782C13.1566 24.1618 12.3526 24.5579 11.68 25.152C10.7284 25.9747 10.0886 27.0715 9.67843 28.5036C9.49796 29.1739 9.3339 30.3469 9.39952 30.545C9.49796 30.8497 11.3683 31.3981 13.3206 31.6875C15.7159 32.0532 17.0941 32.1446 20.7362 32.1446C24.1323 32.1446 25.4941 32.0836 27.6269 31.779C29.2839 31.5504 31.3511 31.0325 31.8433 30.7278C32.0401 30.6059 32.0566 30.5907 32.0073 29.9204C31.9253 28.6254 31.3675 27.102 30.6128 26.0508C30.0714 25.2891 29.4151 24.7711 28.3159 24.2532C27.4956 23.8723 25.2151 22.943 24.7066 22.7907C24.5589 22.745 24.5261 22.8059 24.362 23.3543C23.9519 24.7711 23.4105 26.3555 23.0659 27.2391C22.5901 28.3969 22.1144 29.3719 22.0487 29.311C22.0159 29.2958 21.9175 28.8083 21.8191 28.2293C21.6386 27.2543 21.6386 27.1934 21.7698 27.0411C21.9175 26.8735 22.2948 25.1977 22.2456 24.893L22.2292 24.7102L20.7691 24.695C19.6042 24.6797 19.2925 24.695 19.2105 24.7711C19.0792 24.9235 19.4894 26.9192 19.6698 27.0563C19.7847 27.1325 19.7847 27.2543 19.6206 28.2293C19.5222 28.8235 19.4073 29.311 19.3909 29.311C19.3253 29.311 18.5706 27.7571 18.2425 26.9344C17.898 26.0813 17.0941 23.5219 16.9792 23.004C16.9464 22.8516 16.8808 22.7297 16.8316 22.7297C16.7987 22.745 16.1589 22.9735 15.4206 23.2782Z" fill="#D3D3D3"/>
</svg>
