<svg width="25" height="25" viewBox="0 0 42 40" fill="#969696" xmlns="http://www.w3.org/2000/svg">
<path d="M29.9896 0.000721716C29.6839 -0.0087523 29.383 0.0752567 29.1311 0.240443C28.8791 0.405629 28.6893 0.643312 28.5895 0.918674L26.6376 6.30388C24.2082 5.18997 21.491 4.54609 18.6135 4.54609C8.3506 4.54609 0 12.499 0 22.273C0 32.0471 8.3506 40 18.6135 40C28.8764 40 37.227 32.0471 37.227 22.273C37.227 19.5334 36.5521 16.946 35.3831 14.6329L41.0358 12.7739C41.2135 12.7154 41.3775 12.6241 41.5182 12.5053C41.6589 12.3864 41.7736 12.2424 41.8559 12.0813C41.9381 11.9202 41.9862 11.7453 41.9974 11.5665C42.0087 11.3877 41.9828 11.2085 41.9213 11.0392C40.0602 5.90197 35.8023 1.84785 30.4091 0.0752942C30.274 0.0306233 30.1326 0.00548676 29.9896 0.000721716ZM30.7764 3.2464C34.2537 4.74606 37.0172 7.37881 38.5917 10.6912L26.6543 14.6152L30.7764 3.2464ZM17.1817 7.34256V20.9094H2.93632C3.61574 13.7023 9.61415 7.98962 17.1817 7.34256ZM20.0453 7.34434C22.0649 7.52076 23.9688 8.05924 25.6979 8.89616L22.9872 16.3729C22.8993 16.6148 22.8847 16.8753 22.945 17.1246C23.0052 17.374 23.1379 17.6022 23.3279 17.7832C23.5179 17.9641 23.7575 18.0905 24.0194 18.1479C24.2812 18.2053 24.5547 18.1913 24.8087 18.1076L32.6594 15.5278C33.743 17.5591 34.3633 19.8403 34.3633 22.273C34.3633 25.9311 32.9949 29.2754 30.7204 31.8751L20.0453 21.7084V7.34434ZM2.93632 23.6367H18.0206L28.6958 33.8034C25.966 35.9695 22.4545 37.2728 18.6135 37.2728C10.3819 37.2728 3.65815 31.2936 2.93632 23.6367Z" fill="#D3D3D3"/>
</svg>
